<?xml version="1.0" encoding="UTF-8"?>
<svg version="1.1" xmlns="http://www.w3.org/2000/svg" width="512" height="512">
    <path d="M0 0 C1.01790619 0.00215515 2.03581238 0.0043103 3.08456421 0.00653076 C17.69363523 0.05620146 32.02575853 0.30709809 46.375 3.3125 C47.34985352 3.51117676 48.32470703 3.70985352 49.32910156 3.91455078 C86.24061921 11.63577862 120.90178362 25.97314294 151.375 48.3125 C152.2424585 48.94454346 152.2424585 48.94454346 153.12744141 49.58935547 C160.37723416 54.90780842 167.10620794 60.63229802 173.65625 66.78125 C175.95412963 68.92065518 178.29158807 70.9726899 180.6875 73 C183.94952617 75.83245894 186.76563412 78.88522849 189.55078125 82.18359375 C190.78419972 83.62302216 192.05413567 85.03182121 193.35546875 86.41015625 C205.65985595 99.47656379 215.47661398 114.78779807 224.375 130.3125 C224.80409668 131.06080078 225.23319336 131.80910156 225.67529297 132.58007812 C238.71070917 155.62033667 247.38567422 180.84839856 252.6875 206.75 C252.83485596 207.46889404 252.98221191 208.18778809 253.1340332 208.9284668 C256.10789088 224.57475609 256.74800362 240.04818046 256.6875 255.9375 C256.68534485 256.95540619 256.6831897 257.97331238 256.68096924 259.02206421 C256.63129854 273.63113523 256.38040191 287.96325853 253.375 302.3125 C253.07698486 303.77478027 253.07698486 303.77478027 252.77294922 305.26660156 C245.05172138 342.17811921 230.71435706 376.83928362 208.375 407.3125 C207.9536377 407.89080566 207.53227539 408.46911133 207.09814453 409.06494141 C201.77969158 416.31473416 196.05520198 423.04370794 189.90625 429.59375 C187.76684482 431.89162963 185.7148101 434.22908807 183.6875 436.625 C180.85504106 439.88702617 177.80227151 442.70313412 174.50390625 445.48828125 C173.06447784 446.72169972 171.65567879 447.99163567 170.27734375 449.29296875 C157.21093621 461.59735595 141.89970193 471.41411398 126.375 480.3125 C125.62669922 480.74159668 124.87839844 481.17069336 124.10742188 481.61279297 C101.06716333 494.64820917 75.83910144 503.32317422 49.9375 508.625 C49.21860596 508.77235596 48.49971191 508.91971191 47.7590332 509.0715332 C32.11274391 512.04539088 16.63931954 512.68550362 0.75 512.625 C-0.77685928 512.62176727 -0.77685928 512.62176727 -2.33456421 512.61846924 C-16.94363523 512.56879854 -31.27575853 512.31790191 -45.625 509.3125 C-47.08728027 509.01448486 -47.08728027 509.01448486 -48.57910156 508.71044922 C-85.49061921 500.98922138 -120.15178362 486.65185706 -150.625 464.3125 C-151.20330566 463.8911377 -151.78161133 463.46977539 -152.37744141 463.03564453 C-159.62723416 457.71719158 -166.35620794 451.99270198 -172.90625 445.84375 C-175.20412963 443.70434482 -177.54158807 441.6523101 -179.9375 439.625 C-183.19952617 436.79254106 -186.01563412 433.73977151 -188.80078125 430.44140625 C-190.03419972 429.00197784 -191.30413567 427.59317879 -192.60546875 426.21484375 C-204.90985595 413.14843621 -214.72661398 397.83720193 -223.625 382.3125 C-224.26864502 381.19004883 -224.26864502 381.19004883 -224.92529297 380.04492188 C-237.96070917 357.00466333 -246.63567422 331.77660144 -251.9375 305.875 C-252.08485596 305.15610596 -252.23221191 304.43721191 -252.3840332 303.6965332 C-255.35789088 288.05024391 -255.99800362 272.57681954 -255.9375 256.6875 C-255.93534485 255.66959381 -255.9331897 254.65168762 -255.93096924 253.60293579 C-255.88129854 238.99386477 -255.63040191 224.66174147 -252.625 210.3125 C-252.42632324 209.33764648 -252.22764648 208.36279297 -252.02294922 207.35839844 C-244.30172138 170.44688079 -229.96435706 135.78571638 -207.625 105.3125 C-206.99295654 104.4450415 -206.99295654 104.4450415 -206.34814453 103.56005859 C-201.02969158 96.31026584 -195.30520198 89.58129206 -189.15625 83.03125 C-187.01684482 80.73337037 -184.9648101 78.39591193 -182.9375 76 C-180.10504106 72.73797383 -177.05227151 69.92186588 -173.75390625 67.13671875 C-172.31447784 65.90330028 -170.90567879 64.63336433 -169.52734375 63.33203125 C-156.46093621 51.02764405 -141.14970193 41.21088602 -125.625 32.3125 C-124.87669922 31.88340332 -124.12839844 31.45430664 -123.35742188 31.01220703 C-100.31716333 17.97679083 -75.08910144 9.30182578 -49.1875 4 C-48.46860596 3.85264404 -47.74971191 3.70528809 -47.0090332 3.5534668 C-31.36274391 0.57960912 -15.88931954 -0.06050362 0 0 Z " fill="#FEFEFE" transform="translate(255.625,-0.3125)"/>
    <path d="M0 0 C1.1763501 0.01885254 1.1763501 0.01885254 2.37646484 0.03808594 C32.57396939 0.57999318 68.64536699 4.7125379 92 26 C92.81855469 26.72703125 93.63710938 27.4540625 94.48046875 28.203125 C110.23955618 42.98471987 117.50199435 63.75026365 119 85 C119.11085911 89.50109509 119.09465775 93.9979154 119.0625 98.5 C119.05798828 99.70398438 119.05347656 100.90796875 119.04882812 102.1484375 C119.0371195 105.09901073 119.02071995 108.04947859 119 111 C101.42212206 113.3843009 83.70078354 114.08174417 66 115 C65.97812622 114.03513672 65.97812622 114.03513672 65.95581055 113.05078125 C65.81457958 86.10708285 65.81457958 86.10708285 54.8125 62.1875 C38.89460611 49.80691586 16.84657588 49.63896029 -2.43896484 49.68432617 C-5.2318455 49.6874795 -8.02365606 49.6639623 -10.81640625 49.63867188 C-31.6190497 49.56591209 -55.24257065 51.5014204 -71.390625 66.171875 C-83.54254903 79.22394155 -85.14596824 95.30490731 -85.16113281 112.42407227 C-85.16576801 113.78168368 -85.1707936 115.13929381 -85.17617798 116.49690247 C-85.18923939 120.17086406 -85.19573505 123.84480742 -85.20018864 127.51878858 C-85.20313047 129.82068894 -85.20723739 132.12258445 -85.21169281 134.42448235 C-85.2253534 141.64543716 -85.23502618 148.86638073 -85.2388947 156.08734757 C-85.24336724 164.38739355 -85.26088371 172.68727419 -85.2898953 180.98726994 C-85.31160903 187.42579653 -85.32160418 193.86427693 -85.32293582 200.3028397 C-85.32397726 204.13739364 -85.32974202 207.97179186 -85.34775543 211.80630684 C-85.36440406 215.42040089 -85.36631165 219.03422498 -85.35761642 222.64834404 C-85.35649599 224.58268091 -85.37008423 226.5170095 -85.3843689 228.45129395 C-85.31208147 243.85995389 -82.32688511 258.43257094 -71.46875 269.8984375 C-57.83322264 281.50589592 -37.63346616 284.12702674 -20.37890625 284.203125 C-19.3613475 284.20882507 -18.34378876 284.21452515 -17.2953949 284.22039795 C-15.14461291 284.2298161 -12.99381671 284.23636922 -10.84301758 284.24023438 C-7.60406178 284.24987628 -4.36575861 284.28090431 -1.12695312 284.3125 C16.63997485 284.40458052 35.51728582 283.69592072 50.5 272.75 C60.74509721 261.48039307 64.00660553 246.95230309 64.31640625 232.1015625 C64.34438293 230.99010864 64.34438293 230.99010864 64.3729248 229.85620117 C64.44075007 227.11257808 64.50119872 224.36877661 64.5625 221.625 C64.706875 215.47875 64.85125 209.3325 65 203 C40.91 203 16.82 203 -8 203 C-8 188.15 -8 173.3 -8 158 C34.9 158 77.8 158 122 158 C122 214.43 122 270.86 122 329 C109.79 329 97.58 329 85 329 C84.67 324.38 84.34 319.76 84 315 C83.67815621 312.20442253 83.3317854 309.41128352 82.9375 306.625 C82.67259766 304.72621094 82.67259766 304.72621094 82.40234375 302.7890625 C82.26957031 301.86867188 82.13679687 300.94828125 82 300 C81.443125 300.64066406 80.88625 301.28132813 80.3125 301.94140625 C60.93139907 323.90883652 37.55525926 331.34537615 9.05932617 333.81030273 C3.16773497 334.17561806 -2.72414332 334.14778611 -8.625 334.125 C-9.28940094 334.12245209 -9.95380188 334.11990417 -10.63833618 334.11727905 C-15.09249572 334.09728545 -19.54610178 334.05352486 -24 334 C-24.85996582 333.99274902 -25.71993164 333.98549805 -26.60595703 333.97802734 C-60.04107347 333.53602155 -95.1526438 323.30522544 -119 299 C-124.58178397 292.71236648 -128.70698307 286.11011678 -132.3125 278.5625 C-132.78260498 277.58023438 -132.78260498 277.58023438 -133.26220703 276.578125 C-137.92579921 266.30875045 -140.61597051 255.4975991 -142.22338867 244.36914062 C-142.3920428 243.20678139 -142.56069693 242.04442215 -142.73446178 240.8468399 C-144.42558455 228.25458131 -144.52560969 215.7773852 -144.42578125 203.09375 C-144.42083424 200.62195096 -144.41755049 198.15014811 -144.41581726 195.67834473 C-144.40826445 190.55236402 -144.38797291 185.42667132 -144.35668945 180.30078125 C-144.31695271 173.78477194 -144.29903875 167.26894731 -144.28938007 160.75283051 C-144.27934002 154.44977971 -144.25957115 148.14677146 -144.23828125 141.84375 C-144.2348855 140.67297409 -144.23148975 139.50219818 -144.2279911 138.29594421 C-144.18951532 127.30544863 -144.11256853 116.32677198 -143.55786133 105.34838867 C-143.52091565 104.60333572 -143.48396997 103.85828278 -143.44590473 103.09065247 C-143.04848351 96.18105413 -141.8956392 89.56085546 -140.375 82.8125 C-140.11066162 81.61633057 -139.84632324 80.42016113 -139.57397461 79.18774414 C-135.31189037 60.81832294 -127.28841098 45.53041847 -114 32 C-113.26265625 31.23816406 -112.5253125 30.47632812 -111.765625 29.69140625 C-83.08186182 1.92205834 -37.60143687 -0.93684214 0 0 Z " fill="#010101" transform="translate(267,89)"/>
</svg>
