<?xml version="1.0" encoding="UTF-8"?>
<svg version="1.1" xmlns="http://www.w3.org/2000/svg" width="300" height="300">
    <path d="M0 0 C0.72509766 0.16628906 1.45019531 0.33257812 2.19726562 0.50390625 C38.88755784 9.08085768 72.69646184 32.62799033 92.79101562 64.63256836 C107.9883018 89.499299 116.4389685 115.68881668 116.3125 145.0625 C116.30976578 146.07488739 116.30976578 146.07488739 116.30697632 147.10772705 C116.11444034 189.65755002 99.51686704 226.11737211 69.47729492 255.94458008 C43.20788068 281.32932588 5.34286206 296.61737644 -31.234375 296.1484375 C-71.86282573 294.54690106 -107.20682936 282.20544681 -137 254 C-137.88429687 253.18015625 -138.76859375 252.3603125 -139.6796875 251.515625 C-163.73144038 228.48590128 -180.71041158 193.78753862 -182.16113281 160.27807617 C-182.54604827 123.74915167 -182.54604827 123.74915167 -179 111 C-178.7525 110.1037793 -178.505 109.20755859 -178.25 108.28417969 C-172.76913002 89.13285276 -164.75177684 70.48769911 -152 55 C-151.5771875 54.48002441 -151.154375 53.96004883 -150.71875 53.42431641 C-147.55580491 49.54588977 -144.30842751 45.75511432 -141 42 C-140.37867188 41.29230469 -139.75734375 40.58460937 -139.1171875 39.85546875 C-104.93912487 3.45506573 -47.9605117 -11.56882239 0 0 Z " fill="#C39FCA" transform="translate(182,3)"/>
    <path d="M0 0 C5.50564069 4.58849292 10.60299942 9.46605183 15.6574707 14.54394531 C16.91239571 15.79865128 16.91239571 15.79865128 18.19267273 17.07870483 C20.9394211 19.82614618 23.68261635 22.57710614 26.42578125 25.328125 C28.3386285 27.24339747 30.25223161 29.15791405 32.16581726 31.07244873 C36.67720805 35.58693729 41.18604614 40.10396632 45.69395274 44.6219337 C50.8216421 49.76081817 55.9521856 54.89684909 61.08296835 60.03264475 C71.20169005 70.16136975 81.31718193 80.29331358 91.43036366 90.42757034 C92.61964939 91.61897252 93.80965558 92.80965558 95 94 C94.51242678 96.9100098 93.90541677 99.6028538 93.125 102.4375 C92.89594971 103.28207764 92.66689941 104.12665527 92.4309082 104.99682617 C85.5995985 129.09275917 73.21404858 149.84499057 56 168 C55.55817383 168.474375 55.11634766 168.94875 54.66113281 169.4375 C30.00875482 195.7882673 -6.00308005 211.99550225 -42 214 C-42.66966797 214.16512085 -43.33933594 214.3302417 -44.02929688 214.50036621 C-47.64159346 215.06554158 -50.45860775 215.01127992 -53.60319328 212.94817352 C-58.27903107 209.16792992 -62.37940914 204.76510691 -66.5390625 200.4375 C-67.91262572 199.045271 -69.28842456 197.65524442 -70.66635132 196.26733398 C-74.27600724 192.61961173 -77.85461924 188.94286715 -81.42749023 185.25915527 C-85.08304772 181.50105049 -88.76730558 177.77131736 -92.44921875 174.0390625 C-99.6611133 166.72012399 -106.84051565 159.37018951 -114 152 C-113.505 151.01 -113.505 151.01 -113 150 C-110.55078125 149.40576172 -110.55078125 149.40576172 -107.3125 148.9296875 C-106.13816406 148.75566406 -104.96382812 148.58164063 -103.75390625 148.40234375 C-102.51511719 148.22832031 -101.27632812 148.05429688 -100 147.875 C-98.18822266 147.60236328 -98.18822266 147.60236328 -96.33984375 147.32421875 C-89.70522193 146.36403953 -83.79834439 146 -77 146 C-77 124.55 -77 103.1 -77 81 C-73.37 83.31 -69.74 85.62 -66 88 C-54.57457125 93.61906332 -41.39443458 93.25602275 -29.23828125 90.109375 C-14.23964782 84.97112181 -4.04955408 75.96863594 3.546875 62.1953125 C10.71476388 47.31140206 11.33766364 29.69575177 6.22265625 14.0390625 C4.75217471 10.38399976 3.03798971 7.01268231 0.953125 3.671875 C0 2 0 2 0 0 Z " fill="#C41230" transform="translate(201,85)"/>
    <path d="M0 0 C10.60717049 8.67689035 16.93480277 21.51916927 19.375 34.875 C19.65986394 37.94373069 19.70954074 40.98183418 19.6875 44.0625 C19.68186035 44.89330078 19.6762207 45.72410156 19.67041016 46.58007812 C19.35422948 62.77103335 13.62122533 76.16180337 2.375 87.875 C-11.32947073 99.74665397 -25.74731372 103.86342977 -43.625 102.875 C-51.88006979 101.98643346 -60.82079495 97.67920505 -66.625 91.875 C-66.955 112.995 -67.285 134.115 -67.625 155.875 C-80.165 157.525 -92.705 159.175 -105.625 160.875 C-105.71565195 145.37491095 -105.78918516 129.87495527 -105.83224869 114.37467194 C-105.85278442 107.17595357 -105.8807305 99.97741285 -105.92675781 92.77880859 C-105.96690367 86.49700555 -105.99249794 80.21533128 -106.00135398 73.93340349 C-106.00652252 70.61382411 -106.02064772 67.29490191 -106.04792023 63.97538757 C-106.22367563 41.68045844 -105.26289312 21.10578071 -88.984375 4.0625 C-85.46947775 0.80365487 -81.77862452 -1.75150028 -77.625 -4.125 C-77.02558594 -4.49109375 -76.42617187 -4.8571875 -75.80859375 -5.234375 C-53.04487193 -18.01745853 -20.86050641 -14.83964718 0 0 Z " fill="#FEFEFE" transform="translate(191.625,75.125)"/>
    <path d="M0 0 C6.96639754 3.81619046 11.56296014 9.43888042 14.07421875 16.97265625 C14.77780246 24.65440628 14.52936343 31.47089048 10.07421875 37.97265625 C4.43437608 44.24866339 -1.69087185 48.0044695 -10.23828125 48.47265625 C-17.10560076 48.25569423 -22.64181051 45.88943195 -27.77734375 41.328125 C-33.63815856 34.93319653 -35.54013528 28.4972249 -35.26171875 19.8984375 C-34.35192997 11.97481192 -30.08780916 7.74020062 -24.2421875 2.63671875 C-17.28963785 -2.35786161 -7.99233526 -2.80638741 0 0 Z " fill="#C41331" transform="translate(157.92578125,97.02734375)"/>
</svg>
