<?xml version="1.0" encoding="UTF-8"?>
<svg version="1.1" xmlns="http://www.w3.org/2000/svg" width="200" height="200">
    <path d="M0 0 C2.2810186 -0.00524425 4.56203502 -0.01152364 6.8430481 -0.01878357 C11.60884858 -0.02915352 16.37434985 -0.02467577 21.14013672 -0.01000977 C27.21459898 0.00716351 33.28811397 -0.01631842 39.36247063 -0.05149937 C44.06916441 -0.07357575 48.77563517 -0.07200697 53.48236465 -0.06373405 C55.72041995 -0.06291997 57.95849254 -0.06967819 60.19649887 -0.08450508 C76.69200933 -0.17704705 90.23298512 0.59722185 103.1640625 12.12109375 C117.05920897 26.24181078 117.18920672 41.29170364 117.13671875 59.99609375 C117.141963 62.27711235 117.14824239 64.55812877 117.15550232 66.83914185 C117.16587227 71.60494233 117.16139452 76.3704436 117.14672852 81.13623047 C117.12955524 87.21069273 117.15303717 93.28420772 117.18821812 99.35856438 C117.2102945 104.06525816 117.20872572 108.77172892 117.2004528 113.4784584 C117.19963872 115.7165137 117.20639694 117.95458629 117.22122383 120.19259262 C117.3137658 136.68810308 116.5394969 150.22907887 105.015625 163.16015625 C90.89490797 177.05530272 75.84501511 177.18530047 57.140625 177.1328125 C54.8596064 177.13805675 52.57858998 177.14433614 50.2975769 177.15159607 C45.53177642 177.16196602 40.76627515 177.15748827 36.00048828 177.14282227 C29.92602602 177.12564899 23.85251103 177.14913092 17.77815437 177.18431187 C13.07146059 177.20638825 8.36498983 177.20481947 3.65826035 177.19654655 C1.42020505 177.19573247 -0.81786754 177.20249069 -3.05587387 177.21731758 C-19.55138433 177.30985955 -33.09236012 176.53559065 -46.0234375 165.01171875 C-59.91858397 150.89100172 -60.04858172 135.84110886 -59.99609375 117.13671875 C-60.001338 114.85570015 -60.00761739 112.57468373 -60.01487732 110.29367065 C-60.02524727 105.52787017 -60.02076952 100.7623689 -60.00610352 95.99658203 C-59.98893024 89.92211977 -60.01241217 83.84860478 -60.04759312 77.77424812 C-60.0696695 73.06755434 -60.06810072 68.36108358 -60.0598278 63.6543541 C-60.05901372 61.4162988 -60.06577194 59.17822621 -60.08059883 56.94021988 C-60.1731408 40.44470942 -59.3988719 26.90373363 -47.875 13.97265625 C-33.75428297 0.07750978 -18.70439011 -0.05248797 0 0 Z " fill="#0349AC" transform="translate(71.4296875,11.43359375)"/>
    <path d="M0 0 C41.25 0 82.5 0 125 0 C125 3.96 125 7.92 125 12 C128.96 12 132.92 12 137 12 C137 20.25 137 28.5 137 37 C120.5 37 104 37 87 37 C87 61.75 87 86.5 87 112 C78.75 112 70.5 112 62 112 C62 108.04 62 104.08 62 100 C57.71 100 53.42 100 49 100 C49 79.21 49 58.42 49 37 C36.79 37 24.58 37 12 37 C12 33.04 12 29.08 12 25 C8.04 25 4.08 25 0 25 C0 16.75 0 8.5 0 0 Z " fill="#FDFEFF" transform="translate(38,50)"/>
    <path d="M0 0 C0.33 0 0.66 0 1 0 C1 3.96 1 7.92 1 12 C4.96 12 8.92 12 13 12 C13 20.25 13 28.5 13 37 C-3.5 37 -20 37 -37 37 C-37 61.75 -37 86.5 -37 112 C-45.25 112 -53.5 112 -62 112 C-62 108.04 -62 104.08 -62 100 C-57.71 100 -53.42 100 -49 100 C-49 75.25 -49 50.5 -49 25 C-32.83 25 -16.66 25 0 25 C0 16.75 0 8.5 0 0 Z " fill="#63A3FE" transform="translate(162,50)"/>
    <path d="M0 0 C12.54 0 25.08 0 38 0 C38 24.75 38 49.5 38 75 C37.67 75 37.34 75 37 75 C37 54.21 37 33.42 37 12 C24.79 12 12.58 12 0 12 C0 8.04 0 4.08 0 0 Z " fill="#68A4F9" transform="translate(50,75)"/>
</svg>
